<svg xmlns="http://www.w3.org/2000/svg" viewBox="70 20 100 120" width="240" height="240">
  <defs>
    <linearGradient id="cupGrad" x1="0" x2="0" y1="0" y2="1">
      <stop offset="0%" stop-color="#a77f70" />
      <stop offset="100%" stop-color="#6f453b" />
    </linearGradient>
    <linearGradient id="sunGrad" x1="0" x2="1" y1="0" y2="1">
      <stop offset="0%" stop-color="#ffd591" />
      <stop offset="100%" stop-color="#f8b75f" />
    </linearGradient>
  </defs>
  <circle cx="120" cy="70" r="42" fill="url(#sunGrad)" opacity="0.95" />
  <path d="M80 106 c0 -20 16 -36 36 -36 h24 c20 0 36 16 36 36 v32 c0 12 -10 22 -22 22 h-52 c-12 0 -22 -10 -22 -22 v-32 z" fill="url(#cupGrad)" stroke="#4e2c24" stroke-width="4" />
  <path d="M110 110 c0 -8 12 -8 12 0 v10 c0 8 -12 8 -12 0 z" fill="#f7f3ee" />
  <path d="M146 112 c10 0 18 -8 18 -18 v-6" fill="none" stroke="#4e2c24" stroke-width="6" stroke-linecap="round" />
  <path d="M92 76 c0 -10 8 -18 18 -18" fill="none" stroke="#f6d2a1" stroke-width="4" stroke-linecap="round" opacity="0.8" />
  <path d="M98 68 c0 -8 6 -14 14 -14" fill="none" stroke="#f6d2a1" stroke-width="4" stroke-linecap="round" opacity="0.8" />
</svg>